<?xml version="1.0" encoding="utf-8"?>
<!-- Generator: Adobe Illustrator 23.0.1, SVG Export Plug-In . SVG Version: 6.00 Build 0)  -->
<svg version="1.1" id="Layer_1" xmlns="http://www.w3.org/2000/svg" xmlns:xlink="http://www.w3.org/1999/xlink" x="0px" y="0px"
	 viewBox="0 0 1921.2 1082.3" style="enable-background:new 0 0 1921.2 1082.3;" xml:space="preserve">
<style type="text/css">
	.st0{fill:#57BFFF;stroke:url(#SVGID_1_);stroke-miterlimit:10;}
	.st1{fill:#57BFFF;stroke:url(#SVGID_2_);stroke-width:0.25;stroke-miterlimit:10;}
	.st2{fill:#57BFFF;stroke:url(#SVGID_3_);stroke-width:0.25;stroke-miterlimit:10;}
	.st3{fill:#57BFFF;stroke:url(#SVGID_4_);stroke-width:0.25;stroke-miterlimit:10;}
	.st4{fill:#57BFFF;stroke:url(#SVGID_5_);stroke-width:0.25;stroke-miterlimit:10;}
	.st5{fill:#57BFFF;stroke:url(#SVGID_6_);stroke-width:0.25;stroke-miterlimit:10;}
	.st6{fill:#57BFFF;}
</style>
<title>Asset 4</title>
<g>
	<g id="Layer_1-2">
		
			<radialGradient id="SVGID_1_" cx="683.4435" cy="800.7366" r="245.5674" gradientTransform="matrix(1 0 0 -1 0 1079.89)" gradientUnits="userSpaceOnUse">
			<stop  offset="0.74" style="stop-color:#FFFFFF;stop-opacity:0"/>
			<stop  offset="0.76" style="stop-color:#FFFFFF;stop-opacity:1.000000e-02"/>
			<stop  offset="0.77" style="stop-color:#FFFFFF;stop-opacity:4.000000e-02"/>
			<stop  offset="0.79" style="stop-color:#FFFFFF;stop-opacity:0.1"/>
			<stop  offset="0.79" style="stop-color:#FFFFFF;stop-opacity:0.18"/>
			<stop  offset="0.8" style="stop-color:#FFFFFF;stop-opacity:0.28"/>
			<stop  offset="0.81" style="stop-color:#FFFFFF;stop-opacity:0.4"/>
			<stop  offset="0.82" style="stop-color:#FFFFFF;stop-opacity:0.5"/>
			<stop  offset="0.82" style="stop-color:#DBC01F"/>
			<stop  offset="0.83" style="stop-color:#F1DC3A"/>
			<stop  offset="0.84" style="stop-color:#F5E13F"/>
			<stop  offset="0.84" style="stop-color:#DBC01F"/>
			<stop  offset="0.85" style="stop-color:#E1CB46"/>
			<stop  offset="0.87" style="stop-color:#E9D976"/>
			<stop  offset="0.89" style="stop-color:#F0E4A0"/>
			<stop  offset="0.91" style="stop-color:#F5EEC3"/>
			<stop  offset="0.93" style="stop-color:#FAF5DD"/>
			<stop  offset="0.95" style="stop-color:#FDFBF0"/>
			<stop  offset="0.98" style="stop-color:#FEFEFB"/>
			<stop  offset="1" style="stop-color:#FFFFFF"/>
		</radialGradient>
		<path class="st0" d="M817.4,338.5c-39.2-43.2-87.9-77-135.1-109.8c-17.2-11.9-35-24.3-52-36.9C579.2,154,508.4,94.1,484.5,11.1
			c-1-3.5-1.9-7.1-2.8-10.6h-4.2c0.9,4,1.9,7.9,3.1,11.8c24.2,84.2,95.7,144.7,147.3,182.9c17.1,12.6,34.9,25,52.1,37
			c47,32.6,95.5,66.3,134.4,109.2c71.4,78.7,79.9,161.7,63.9,213.9c-0.3,1,0.3,2.1,1.3,2.5l0.1,0c1.1,0.3,2.2-0.2,2.5-1.3
			c0,0,0,0,0,0c10.8-35.1,9.6-74.6-3.4-114.5C866.9,405.4,845.6,369.6,817.4,338.5z"/>
		
			<radialGradient id="SVGID_2_" cx="473.759" cy="538.3748" r="409.3036" gradientTransform="matrix(1 0 0 -1 0 1079.89)" gradientUnits="userSpaceOnUse">
			<stop  offset="0.74" style="stop-color:#FFFFFF;stop-opacity:0"/>
			<stop  offset="0.76" style="stop-color:#FFFFFF;stop-opacity:1.000000e-02"/>
			<stop  offset="0.77" style="stop-color:#FFFFFF;stop-opacity:4.000000e-02"/>
			<stop  offset="0.79" style="stop-color:#FFFFFF;stop-opacity:0.1"/>
			<stop  offset="0.79" style="stop-color:#FFFFFF;stop-opacity:0.18"/>
			<stop  offset="0.8" style="stop-color:#FFFFFF;stop-opacity:0.28"/>
			<stop  offset="0.81" style="stop-color:#FFFFFF;stop-opacity:0.4"/>
			<stop  offset="0.82" style="stop-color:#FFFFFF;stop-opacity:0.5"/>
			<stop  offset="0.82" style="stop-color:#DBC01F"/>
			<stop  offset="0.83" style="stop-color:#F1DC3A"/>
			<stop  offset="0.84" style="stop-color:#F5E13F"/>
			<stop  offset="0.84" style="stop-color:#DBC01F"/>
			<stop  offset="0.85" style="stop-color:#E1CB46"/>
			<stop  offset="0.87" style="stop-color:#E9D976"/>
			<stop  offset="0.89" style="stop-color:#F0E4A0"/>
			<stop  offset="0.91" style="stop-color:#F5EEC3"/>
			<stop  offset="0.93" style="stop-color:#FAF5DD"/>
			<stop  offset="0.95" style="stop-color:#FDFBF0"/>
			<stop  offset="0.98" style="stop-color:#FEFEFB"/>
			<stop  offset="1" style="stop-color:#FFFFFF"/>
		</radialGradient>
		<path class="st1" d="M664.3,577.8c16.1,47.3,28.5,128-49.1,282.3c-6.4,12.7-13.1,25.7-19.6,38.2c-30.2,58.2-61.1,118-75.2,181.4
			c-0.2,1.1,0.5,2.1,1.5,2.4c0.2,0,0.3,0,0.5,0h0.2c0.9,0,1.7-0.6,1.9-1.6c14-62.9,44.8-122.4,74.8-180.4
			c6.5-12.5,13.2-25.5,19.6-38.3c37.5-74.6,83.4-185.3,49.3-285.5c-29.9-87.6-110.2-142.8-188-196.2c-77.1-53-156.9-107.8-186.3-194
			c-12.5-36.8-14.6-76.6-16.6-115.1c-0.5-9.1-1-18.5-1.6-27.7c-0.9-12.8-2.4-27.3-4.4-40.8c-0.2-1-1-1.7-2-1.7l0,0c-1.1,0-2,0.9-2,2
			c0,0.1,0,0.2,0,0.3c1.7,12.6,3.4,28.9,4.2,40.5c0.6,9.2,1.1,18.6,1.6,27.7c2,38.8,4.1,79,16.9,116.3
			c29.9,87.5,110.2,142.7,187.9,196.1C555.1,436.7,634.9,491.5,664.3,577.8z"/>
		
			<radialGradient id="SVGID_3_" cx="1496.1643" cy="406.4934" r="309.1453" gradientTransform="matrix(1 0 0 -1 0 1079.89)" gradientUnits="userSpaceOnUse">
			<stop  offset="0.74" style="stop-color:#FFFFFF;stop-opacity:0"/>
			<stop  offset="0.76" style="stop-color:#FFFFFF;stop-opacity:1.000000e-02"/>
			<stop  offset="0.77" style="stop-color:#FFFFFF;stop-opacity:4.000000e-02"/>
			<stop  offset="0.79" style="stop-color:#FFFFFF;stop-opacity:0.1"/>
			<stop  offset="0.79" style="stop-color:#FFFFFF;stop-opacity:0.18"/>
			<stop  offset="0.8" style="stop-color:#FFFFFF;stop-opacity:0.28"/>
			<stop  offset="0.81" style="stop-color:#FFFFFF;stop-opacity:0.4"/>
			<stop  offset="0.82" style="stop-color:#FFFFFF;stop-opacity:0.5"/>
			<stop  offset="0.82" style="stop-color:#DBC01F"/>
			<stop  offset="0.83" style="stop-color:#F1DC3A"/>
			<stop  offset="0.84" style="stop-color:#F5E13F"/>
			<stop  offset="0.84" style="stop-color:#DBC01F"/>
			<stop  offset="0.85" style="stop-color:#E1CB46"/>
			<stop  offset="0.87" style="stop-color:#E9D976"/>
			<stop  offset="0.89" style="stop-color:#F0E4A0"/>
			<stop  offset="0.91" style="stop-color:#F5EEC3"/>
			<stop  offset="0.93" style="stop-color:#FAF5DD"/>
			<stop  offset="0.95" style="stop-color:#FDFBF0"/>
			<stop  offset="0.98" style="stop-color:#FEFEFB"/>
			<stop  offset="1" style="stop-color:#FFFFFF"/>
		</radialGradient>
		<path class="st2" d="M1459.1,1018c-44.6-45.4-105.1-115.6-115.7-201.3c-6.6-53.1,5.4-107.3,36.6-165.8
			c30.6-57.3,75.8-109.7,107.1-144.2c3.7-4.1,7.4-8.1,11.1-12.2c63.3-69.5,128.3-140.9,156.6-225.8c0.3-1.1-0.3-2.2-1.4-2.5
			c-0.7-0.2-1.4,0-1.9,0.5l-0.3,0.2c-0.2,0.2-0.4,0.5-0.5,0.8c-28.1,84-92.7,154.9-155.7,224l-11.1,12.2
			c-31.5,34.6-76.9,87.4-107.7,145.1c-31.6,59.2-43.8,114.3-37.1,168.2c10.8,86.9,71.8,157.9,116.8,203.7
			c14.9,15.2,30.6,30.2,45.7,44.7c5,4.8,10,9.6,15.1,14.5c0.4,0.4,0.9,0.6,1.4,0.6h0.2c1.1,0,2-0.9,2-2c0-0.5-0.2-1-0.6-1.4
			c-5.1-4.9-10.1-9.8-15.2-14.6C1489.5,1048.1,1473.9,1033.1,1459.1,1018z"/>
		
			<radialGradient id="SVGID_4_" cx="1010.7472" cy="538.4052" r="388.7223" gradientTransform="matrix(1 0 0 -1 0 1079.89)" gradientUnits="userSpaceOnUse">
			<stop  offset="0.74" style="stop-color:#FFFFFF;stop-opacity:0"/>
			<stop  offset="0.76" style="stop-color:#FFFFFF;stop-opacity:1.000000e-02"/>
			<stop  offset="0.77" style="stop-color:#FFFFFF;stop-opacity:4.000000e-02"/>
			<stop  offset="0.79" style="stop-color:#FFFFFF;stop-opacity:0.1"/>
			<stop  offset="0.79" style="stop-color:#FFFFFF;stop-opacity:0.18"/>
			<stop  offset="0.8" style="stop-color:#FFFFFF;stop-opacity:0.28"/>
			<stop  offset="0.81" style="stop-color:#FFFFFF;stop-opacity:0.4"/>
			<stop  offset="0.82" style="stop-color:#FFFFFF;stop-opacity:0.5"/>
			<stop  offset="0.82" style="stop-color:#DBC01F"/>
			<stop  offset="0.83" style="stop-color:#F1DC3A"/>
			<stop  offset="0.84" style="stop-color:#F5E13F"/>
			<stop  offset="0.84" style="stop-color:#DBC01F"/>
			<stop  offset="0.85" style="stop-color:#E1CB46"/>
			<stop  offset="0.87" style="stop-color:#E9D976"/>
			<stop  offset="0.89" style="stop-color:#F0E4A0"/>
			<stop  offset="0.91" style="stop-color:#F5EEC3"/>
			<stop  offset="0.93" style="stop-color:#FAF5DD"/>
			<stop  offset="0.95" style="stop-color:#FDFBF0"/>
			<stop  offset="0.98" style="stop-color:#FEFEFB"/>
			<stop  offset="1" style="stop-color:#FFFFFF"/>
		</radialGradient>
		<path class="st3" d="M992,929c20.8,26.3,42.3,53.5,58.2,82.7c11.8,21.7,20.5,44.8,25.9,68.9c0.1,0.4,0.3,0.7,0.6,1h2.8
			c0.5-0.5,0.8-1.2,0.6-1.9c-5.5-24.4-14.4-48-26.3-70c-16.1-29.5-37.7-56.8-58.6-83.2c-37.6-47.6-73.1-92.6-80.7-149.8
			c-10.3-78,36.2-150.3,83.1-210.8c4.1-5.3,8.3-10.7,12.5-16c44.6-57,90.8-116,100.5-187.3c8.1-59.2-10.4-119.3-28.2-177.5
			c-19.3-62.9-37.7-122.7-25.2-181.1c0.2-1.1-0.5-2.1-1.5-2.4c-0.1,0-0.3,0-0.4,0h-0.1c-1,0-1.8,0.6-2,1.6
			c-12.6,60,6.6,122.5,25.3,183.2c17.7,57.7,36.1,117.4,28.1,175.7c-9.6,70.2-55.4,128.8-99.7,185.3c-4.2,5.4-8.4,10.7-12.5,16
			c-47.4,61.1-94.5,134.3-84,213.9C918.1,835.6,955.7,883.1,992,929z"/>
		
			<radialGradient id="SVGID_5_" cx="246.7473" cy="575.8354" r="396.3548" gradientTransform="matrix(1 0 0 -1 0 1079.89)" gradientUnits="userSpaceOnUse">
			<stop  offset="0.74" style="stop-color:#FFFFFF;stop-opacity:0"/>
			<stop  offset="0.76" style="stop-color:#FFFFFF;stop-opacity:1.000000e-02"/>
			<stop  offset="0.77" style="stop-color:#FFFFFF;stop-opacity:4.000000e-02"/>
			<stop  offset="0.79" style="stop-color:#FFFFFF;stop-opacity:0.1"/>
			<stop  offset="0.79" style="stop-color:#FFFFFF;stop-opacity:0.18"/>
			<stop  offset="0.8" style="stop-color:#FFFFFF;stop-opacity:0.28"/>
			<stop  offset="0.81" style="stop-color:#FFFFFF;stop-opacity:0.4"/>
			<stop  offset="0.82" style="stop-color:#FFFFFF;stop-opacity:0.5"/>
			<stop  offset="0.82" style="stop-color:#DBC01F"/>
			<stop  offset="0.83" style="stop-color:#F1DC3A"/>
			<stop  offset="0.84" style="stop-color:#F5E13F"/>
			<stop  offset="0.84" style="stop-color:#DBC01F"/>
			<stop  offset="0.85" style="stop-color:#E1CB46"/>
			<stop  offset="0.87" style="stop-color:#E9D976"/>
			<stop  offset="0.89" style="stop-color:#F0E4A0"/>
			<stop  offset="0.91" style="stop-color:#F5EEC3"/>
			<stop  offset="0.93" style="stop-color:#FAF5DD"/>
			<stop  offset="0.95" style="stop-color:#FDFBF0"/>
			<stop  offset="0.98" style="stop-color:#FEFEFB"/>
			<stop  offset="1" style="stop-color:#FFFFFF"/>
		</radialGradient>
		<path class="st4" d="M355.2,472.7c-28.7-17.4-61.1-30.2-92.4-42.6c-56.4-22.3-109.7-43.4-145-89.2c-48-62.3-44-148.2-33.8-224
			c0.9-6.7,1.8-13.4,2.8-20.1C91.1,65.7,95.4,34.1,96.8,3c0.1-1.1-0.8-2.1-1.9-2.1c-0.1,0-0.1,0-0.2,0h-0.2c-1,0.1-1.8,0.9-1.9,1.9
			c-1.4,31-5.7,62.5-10.1,93.4c-0.9,6.7-1.9,13.4-2.8,20.1C69.5,193,65.5,280,114.5,343.5c36,46.6,92.3,68.9,146.7,90.5
			c31.2,12.3,63.4,25,91.8,42.3c99.2,60.2,154.3,186.3,131,299.9s-123.5,208-238.3,224.3c-87.4,12.4-179.4-21-242.2-83
			c-0.8-0.8-2.1-0.7-2.8,0.1c-0.4,0.4-0.6,0.9-0.5,1.4v0.2c0,0.5,0.2,1.1,0.6,1.4c62.7,61.8,154.1,95.6,241.5,84.5
			c1.3-0.2,2.7-0.3,4-0.5C362.8,988,464.4,892.3,488,777S455.8,533.8,355.2,472.7z"/>
		
			<radialGradient id="SVGID_6_" cx="1730.089" cy="521.8063" r="369.149" gradientTransform="matrix(1 0 0 -1 0 1079.89)" gradientUnits="userSpaceOnUse">
			<stop  offset="0.74" style="stop-color:#FFFFFF;stop-opacity:0"/>
			<stop  offset="0.76" style="stop-color:#FFFFFF;stop-opacity:1.000000e-02"/>
			<stop  offset="0.77" style="stop-color:#FFFFFF;stop-opacity:4.000000e-02"/>
			<stop  offset="0.79" style="stop-color:#FFFFFF;stop-opacity:0.1"/>
			<stop  offset="0.79" style="stop-color:#FFFFFF;stop-opacity:0.18"/>
			<stop  offset="0.8" style="stop-color:#FFFFFF;stop-opacity:0.28"/>
			<stop  offset="0.81" style="stop-color:#FFFFFF;stop-opacity:0.4"/>
			<stop  offset="0.82" style="stop-color:#FFFFFF;stop-opacity:0.5"/>
			<stop  offset="0.82" style="stop-color:#DBC01F"/>
			<stop  offset="0.83" style="stop-color:#F1DC3A"/>
			<stop  offset="0.84" style="stop-color:#F5E13F"/>
			<stop  offset="0.84" style="stop-color:#DBC01F"/>
			<stop  offset="0.85" style="stop-color:#E1CB46"/>
			<stop  offset="0.87" style="stop-color:#E9D976"/>
			<stop  offset="0.89" style="stop-color:#F0E4A0"/>
			<stop  offset="0.91" style="stop-color:#F5EEC3"/>
			<stop  offset="0.93" style="stop-color:#FAF5DD"/>
			<stop  offset="0.95" style="stop-color:#FDFBF0"/>
			<stop  offset="0.98" style="stop-color:#FEFEFB"/>
			<stop  offset="1" style="stop-color:#FFFFFF"/>
		</radialGradient>
		<path class="st5" d="M1645.2,976.2c-89.3-73.9-125.6-206.7-86.1-315.7c28.6-79,90.2-140.7,149.8-200.3c10-10,20.3-20.3,30.3-30.5
			c58.3-59.8,135.5-151.5,133.2-257.3c-0.8-34.9-9.8-67.6-23.8-98.8c-0.5-1-1.6-1.4-2.7-1c-0.2,0.1-0.4,0.2-0.6,0.4l-0.1,0.1
			c-0.6,0.6-0.7,1.5-0.4,2.2c13.8,30.7,22.7,62.9,23.4,97.1c1.1,49.9-11.4,130.6-132,254.3c-9.9,10.2-20.3,20.5-30.2,30.5
			c-59.9,60-121.8,122-150.7,201.8c-39.6,109.4-4.2,242.3,84.3,317.8c1,0.9,2,1.7,3.1,2.6c75.4,62.4,184.4,80.3,277.2,49.9
			c0.8-0.3,1.4-1,1.4-1.9v-0.2c0-1.1-0.9-2-2-2c-0.2,0-0.4,0-0.6,0.1C1827,1055.4,1719.5,1037.7,1645.2,976.2z"/>
		<path class="st6" d="M879.2,554c-24.7,65.8-45.9,132.8-63.7,200.7c-18,68.4-32.8,137.6-45.1,207.3c-6.9,39-13,78.2-18.3,117.5
			c-0.3,1.9,2.6,2.7,2.9,0.8c9.6-69.8,21.3-139.3,35.9-208.2c14.6-69.1,32-137.7,52.9-205.2c11.7-37.7,24.5-75.1,38.4-112.1
			C882.8,553,879.9,552.2,879.2,554z"/>
		<path class="st6" d="M1146,1078.4c-18-36-30.4-74.4-41.4-113c-8.4-29.5-19-68.6,8.9-91.3c23.9-19.5,60.3-12.8,85.2,1
			c30.8,17,53.2,46.1,69.2,76.9c20.8,40.1,31.1,84.4,45,127.1c0.6,1.8,3.5,1,2.9-0.8c-23.5-71.9-40.5-159.6-110-202.6
			c-24.4-15.1-58.4-23.6-85.3-9.7c-13.8,7.2-23.6,20.2-26.7,35.5c-3.3,15.9-0.4,32.5,3.5,48c11.1,44.6,25.7,89.3,46.2,130.4
			C1144.3,1081.6,1146.9,1080.1,1146,1078.4L1146,1078.4z"/>
		<path class="st6" d="M1342,3.2c-4,44.4-15.2,87.8-33,128.7c-4.5,10.3-9.4,20.3-14.7,30.2c-5.3,9.9-11.5,19.2-17.1,28.9
			s-11.5,19.4-17.9,28.9c-2.9,4.2-5.8,8.2-8.5,12.5s-5.9,8.2-9,12.3c-6.5,8.9-12,18.6-17.9,27.9c-6.1,9.7-12,19.4-17.7,29.3
			c-10.7,18.2-20.2,37.1-28.4,56.5c-17,40.4-25.9,86.6-18.3,130.2c3.2,18.7,10.2,39.3,23.2,53.5c6.1,6.6,14.2,13.8,22.3,17.8
			c8.5,4,17.5,6.7,26.8,7.8c19.8,2.6,39.8-1.6,57.7-10s33.1-21.5,46.4-36c27-29.3,46.4-65.1,64.2-100.4c20.1-40,36.9-81.6,51.3-124
			c29-85.5,48.3-173.9,69-261.7c2.5-10.8,5.1-21.6,7.7-32.3c0.4-1.9-2.4-2.7-2.9-0.8c-20.6,85.3-38.6,171.4-64.3,255.4
			c-12.9,42.3-27.8,84.1-45.8,124.6c-16.4,36.9-34.8,74-57.8,107.4c-22.6,32.9-52.7,64.6-93.1,73.5c-10.1,2.3-20.6,2.8-30.9,1.7
			c-10.5-1.2-22.6-4.1-31.3-10.2c-8.4-5.8-17-13.1-22.7-21.7c-5.7-8.8-10.1-18.4-13.1-28.4c-12.9-41.8-6-89.5,8.3-130
			c14.5-40.8,37.6-78.2,60.7-114.5c2.9-4.6,5.7-9.4,8.9-13.8c1.5-2,3.4-3.6,4.9-5.5s2.5-4.3,3.7-6.3c5.3-8.7,11.2-17.1,17-25.5
			c6.3-9.1,11.2-19.1,17-28.6c5.7-9.2,11-18.6,15.8-28.4c18.8-37.7,31.8-78,38.5-119.5c1.6-9.8,2.8-19.6,3.7-29.5
			c0.2-1.9-2.8-1.9-3,0L1342,3.2z"/>
	</g>
</g>
</svg>
