<svg xmlns="http://www.w3.org/2000/svg" xmlns:xlink="http://www.w3.org/1999/xlink" viewBox="0 0 1921.2 1081.5"><defs><style>.cls-1,.cls-2,.cls-3,.cls-4,.cls-5,.cls-6,.cls-7{fill:#003189;}.cls-2,.cls-3,.cls-4,.cls-5,.cls-6,.cls-7{stroke-miterlimit:10;stroke-width:0.25px;}.cls-2{stroke:url(#radial-gradient);}.cls-3{stroke:url(#radial-gradient-2);}.cls-4{stroke:url(#radial-gradient-3);}.cls-5{stroke:url(#radial-gradient-4);}.cls-6{stroke:url(#radial-gradient-5);}.cls-7{stroke:url(#radial-gradient-6);}</style><radialGradient id="radial-gradient" cx="473.77" cy="540.77" r="409.29" gradientUnits="userSpaceOnUse"><stop offset="0" stop-color="#fceae1"/><stop offset="0.63" stop-color="#000568"/><stop offset="1" stop-color="#10006a"/></radialGradient><radialGradient id="radial-gradient-2" cx="1496.2" cy="672.6" r="309.17" xlink:href="#radial-gradient"/><radialGradient id="radial-gradient-3" cx="1010.76" cy="541.07" r="388.88" xlink:href="#radial-gradient"/><radialGradient id="radial-gradient-4" cx="246.77" cy="503.28" r="396.35" xlink:href="#radial-gradient"/><radialGradient id="radial-gradient-5" cx="764.79" cy="264.01" r="288.56" xlink:href="#radial-gradient"/><radialGradient id="radial-gradient-6" cx="1730.06" cy="557.33" r="369.15" xlink:href="#radial-gradient"/></defs><title>Asset 2</title><g id="Layer_2" data-name="Layer 2"><g id="Layer_1-2" data-name="Layer 1"><path class="cls-1" d="M1599.92.77c47.43,60.4,71.13,135.35,64,205.69-1.91,19-8.29,46-13.83,63.7l5-4c4.46-15.65,11.26-42.65,12.94-59.29,7.11-70.4-16.14-145.32-62.9-206.1Z"/><path class="cls-1" d="M1801.85.77c15.71,22.72,32,50.22,43.26,74.39l2-5c-10.84-23.09-25.34-47.67-40.25-69.39Z"/><path class="cls-2" d="M664.26,577c16.09,47.28,28.52,128-49.08,282.31-6.39,12.72-13.11,25.68-19.6,38.21-30.17,58.25-61.13,118-75.19,181.42a2,2,0,0,0,2,2.42h.16a2,2,0,0,0,1.93-1.56c14-62.89,44.78-122.4,74.81-180.38,6.5-12.55,13.22-25.52,19.63-38.26,37.5-74.57,83.4-185.31,49.29-285.49C638.33,488.09,558,432.9,480.25,379.52c-77.12-53-156.87-107.75-186.31-194-12.55-36.76-14.63-76.61-16.64-115.15-.48-9.1-1-18.5-1.59-27.72-.86-12.78-2.37-27.33-4.35-40.82a2,2,0,0,0-2-1.69h0a2,2,0,0,0-2,2.25c1.73,12.64,3.38,28.9,4.17,40.54.61,9.18,1.1,18.57,1.58,27.66,2,38.82,4.12,79,16.85,116.26,29.88,87.53,110.21,142.7,187.89,196.05C555.08,435.92,634.87,490.72,664.26,577Z"/><path class="cls-3" d="M1459.06,1017.25c-44.59-45.39-105.1-115.64-115.7-201.3-6.58-53.11,5.4-107.34,36.62-165.78,30.6-57.28,75.78-109.75,107.1-144.23l11.1-12.2c63.29-69.49,128.32-140.89,156.61-225.77a2,2,0,0,0-3.29-2l-.25.25a2,2,0,0,0-.47.76c-28.1,84-92.74,154.94-155.65,224L1484,503.17c-31.47,34.64-76.86,87.37-107.67,145.05-31.64,59.23-43.77,114.26-37.09,168.24,10.76,86.91,71.84,157.86,116.85,203.68,14.9,15.16,30.55,30.16,45.69,44.67q7.52,7.2,15.08,14.48a2,2,0,0,0,1.37.55h.22a2,2,0,0,0,1.38-3.42q-7.61-7.34-15.2-14.59C1489.54,1047.34,1473.91,1032.37,1459.06,1017.25Z"/><path class="cls-4" d="M1055.22.77h-.09a2,2,0,0,0-2,1.57c-12.59,60,6.61,122.48,25.27,183.17,17.74,57.69,36.08,117.36,28.09,175.7-9.61,70.22-55.4,128.74-99.69,185.34-4.19,5.35-8.37,10.69-12.49,16-47.41,61.14-94.45,134.36-84,213.86,7.72,58.4,45.26,105.91,81.56,151.86,20.79,26.31,42.28,53.52,58.21,82.67a267.92,267.92,0,0,1,25.92,68.88,2,2,0,0,0,1.93,1.55h.14a2,2,0,0,0,1.94-2.43,271.42,271.42,0,0,0-26.31-70c-16.1-29.46-37.7-56.8-58.59-83.25-37.62-47.6-73.14-92.57-80.71-149.84-10.3-78,36.24-150.33,83.12-210.79q6.18-8,12.48-16c44.62-57,90.77-116,100.53-187.32,8.11-59.24-10.37-119.35-28.23-177.47-19.34-62.89-37.73-122.73-25.24-181.12A2,2,0,0,0,1055.22.77Z"/><path class="cls-5" d="M355.16,472c-28.69-17.41-61.1-30.23-92.44-42.63C206.31,407,153,386,117.75,340.2c-48-62.32-44-148.23-33.81-224q1.35-10,2.77-20.1C91.05,65,95.45,33.4,96.82,2.2A2,2,0,0,0,94.74.13h-.16A2,2,0,0,0,92.69,2C91.33,33.06,87,64.5,82.63,95.48c-.94,6.73-1.88,13.44-2.78,20.12C69.5,192.26,65.53,279.2,114.49,342.72c36,46.65,92.26,68.93,146.71,90.47,31.18,12.34,63.42,25.1,91.82,42.32,99.17,60.16,154.25,186.3,131,299.93s-123.5,208-238.33,224.29c-87.43,12.42-179.42-21-242.17-82.94a2,2,0,0,0-3.37,1.42v.21a2,2,0,0,0,.59,1.42c62.69,61.85,154.07,95.58,241.54,84.51l4-.53C362.75,987.24,464.44,891.55,488,776.27S455.77,533,355.16,472Z"/><path class="cls-6" d="M1031.72,419.8c-24.27-29.77-56.94-55.49-94.48-74.38-52-26.2-109.73-40.24-165.51-53.82-20.34-5-41.38-10.07-61.81-15.7C648.58,259,561,228.57,508.87,159.78c-31.61-41.71-48.41-93.24-51.29-157.43a2,2,0,0,0-2-1.9h-.16a2,2,0,0,0-2,2.08c2.92,65.05,20,117.34,52.12,159.74,52.9,69.79,141.33,100.55,203.24,117.61,20.5,5.65,41.56,10.77,61.93,15.73,55.56,13.52,113,27.51,164.64,53.49,94.95,47.79,132.73,122.17,136.6,176.63a2,2,0,0,0,2.09,1.85h.15a2,2,0,0,0,1.88-2.12C1073.57,488.82,1058.25,452.33,1031.72,419.8Z"/><path class="cls-7" d="M1645.15,975.47c-89.34-73.88-125.62-206.69-86.12-315.75,28.61-79,90.2-140.66,149.76-200.31,10-10,20.3-20.33,30.26-30.54,58.26-59.78,135.46-151.48,133.19-257.29-.75-34.91-9.76-67.6-23.8-98.77a2,2,0,0,0-3.22-.58l-.13.13a2,2,0,0,0-.4,2.21c13.82,30.71,22.69,62.86,23.43,97.1,1.07,49.93-11.45,130.62-132,254.31-9.94,10.2-20.25,20.53-30.22,30.52-59.88,60-121.8,122-150.72,201.82-39.62,109.38-4.16,242.29,84.29,317.74,1,.87,2,1.74,3.08,2.59C1718,1041,1827,1058.92,1919.7,1028.56a2,2,0,0,0,1.38-1.89v-.15a2,2,0,0,0-2.61-1.88C1827,1054.61,1719.53,1037,1645.15,975.47Z"/></g></g></svg>