<svg id="calendar" xmlns="http://www.w3.org/2000/svg" width="143.884" height="143.884" viewBox="0 0 143.884 143.884">
  <g id="Group_7" data-name="Group 7">
    <g id="Group_6" data-name="Group 6">
      <path id="Path_18" data-name="Path 18" d="M127.022,11.241h-6.745V0H109.037V11.241H34.847V0H23.606V11.241H16.861A16.881,16.881,0,0,0,0,28.1v98.92a16.881,16.881,0,0,0,16.861,16.861H127.022a16.881,16.881,0,0,0,16.861-16.861V28.1A16.881,16.881,0,0,0,127.022,11.241Zm5.62,115.782a5.627,5.627,0,0,1-5.62,5.62H16.861a5.627,5.627,0,0,1-5.62-5.62V52.832h121.4Zm0-85.431H11.241V28.1a5.627,5.627,0,0,1,5.62-5.62h6.745V33.723H34.847V22.482h74.19V33.723h11.241V22.482h6.745a5.627,5.627,0,0,1,5.62,5.62Z" fill="#82b4ff"/>
    </g>
  </g>
  <g id="Group_9" data-name="Group 9" transform="translate(21.441 65.031)">
    <g id="Group_8" data-name="Group 8" transform="translate(0 0)">
      <rect id="Rectangle_6" data-name="Rectangle 6" width="11" height="10" transform="translate(0.356 0.418)" fill="#82b4ff"/>
    </g>
  </g>
  <g id="Group_11" data-name="Group 11" transform="translate(44.476 65.031)">
    <g id="Group_10" data-name="Group 10" transform="translate(0 0)">
      <rect id="Rectangle_7" data-name="Rectangle 7" width="10" height="10" transform="translate(0.321 0.418)" fill="#82b4ff"/>
    </g>
  </g>
  <g id="Group_13" data-name="Group 13" transform="translate(66.626 65.031)">
    <g id="Group_12" data-name="Group 12" transform="translate(0 0)">
      <rect id="Rectangle_8" data-name="Rectangle 8" width="11" height="10" transform="translate(0.171 0.418)" fill="#82b4ff"/>
    </g>
  </g>
  <g id="Group_15" data-name="Group 15" transform="translate(87.89 65.031)">
    <g id="Group_14" data-name="Group 14" transform="translate(0 0)">
      <rect id="Rectangle_9" data-name="Rectangle 9" width="12" height="10" transform="translate(-0.093 0.418)" fill="#82b4ff"/>
    </g>
  </g>
  <g id="Group_17" data-name="Group 17" transform="translate(110.925 65.031)">
    <g id="Group_16" data-name="Group 16" transform="translate(0 0)">
      <rect id="Rectangle_10" data-name="Rectangle 10" width="12" height="10" transform="translate(-0.128 0.418)" fill="#82b4ff"/>
    </g>
  </g>
  <g id="Group_19" data-name="Group 19" transform="translate(21.441 87.181)">
    <g id="Group_18" data-name="Group 18" transform="translate(0 0)">
      <rect id="Rectangle_11" data-name="Rectangle 11" width="11" height="11" transform="translate(0.356 0.268)" fill="#82b4ff"/>
    </g>
  </g>
  <g id="Group_21" data-name="Group 21" transform="translate(44.476 87.181)">
    <g id="Group_20" data-name="Group 20" transform="translate(0 0)">
      <rect id="Rectangle_12" data-name="Rectangle 12" width="10" height="11" transform="translate(0.321 0.268)" fill="#82b4ff"/>
    </g>
  </g>
  <g id="Group_23" data-name="Group 23" transform="translate(66.626 87.181)">
    <g id="Group_22" data-name="Group 22" transform="translate(0 0)">
      <rect id="Rectangle_13" data-name="Rectangle 13" width="11" height="11" transform="translate(0.171 0.268)" fill="#82b4ff"/>
    </g>
  </g>
  <g id="Group_25" data-name="Group 25" transform="translate(87.89 87.181)">
    <g id="Group_24" data-name="Group 24" transform="translate(0 0)">
      <rect id="Rectangle_14" data-name="Rectangle 14" width="12" height="11" transform="translate(-0.093 0.268)" fill="#82b4ff"/>
    </g>
  </g>
  <g id="Group_27" data-name="Group 27" transform="translate(21.441 110.216)">
    <g id="Group_26" data-name="Group 26" transform="translate(0 0)">
      <rect id="Rectangle_15" data-name="Rectangle 15" width="11" height="10" transform="translate(0.356 0.233)" fill="#82b4ff"/>
    </g>
  </g>
  <g id="Group_29" data-name="Group 29" transform="translate(44.476 110.216)">
    <g id="Group_28" data-name="Group 28" transform="translate(0 0)">
      <rect id="Rectangle_16" data-name="Rectangle 16" width="10" height="10" transform="translate(0.321 0.233)" fill="#82b4ff"/>
    </g>
  </g>
  <g id="Group_31" data-name="Group 31" transform="translate(66.626 110.216)">
    <g id="Group_30" data-name="Group 30" transform="translate(0 0)">
      <rect id="Rectangle_17" data-name="Rectangle 17" width="11" height="10" transform="translate(0.171 0.233)" fill="#82b4ff"/>
    </g>
  </g>
  <g id="Group_33" data-name="Group 33" transform="translate(87.89 110.216)">
    <g id="Group_32" data-name="Group 32" transform="translate(0 0)">
      <rect id="Rectangle_18" data-name="Rectangle 18" width="12" height="10" transform="translate(-0.093 0.233)" fill="#82b4ff"/>
    </g>
  </g>
  <g id="Group_35" data-name="Group 35" transform="translate(110.925 87.181)">
    <g id="Group_34" data-name="Group 34" transform="translate(0 0)">
      <rect id="Rectangle_19" data-name="Rectangle 19" width="12" height="11" transform="translate(-0.128 0.268)" fill="#82b4ff"/>
    </g>
  </g>
</svg>
